PathFileType	4	(X/Y/Z)	/Users/niels/Desktop/University/Third Semester/Perception and Action/Exam/Gymnastics Motion Tracking/Code for Gym Tracking/Analyzed Data/Start Salto/stsalto_bad_id15_1_Sports2D/stsalto_bad_id15_1_Sports2D_px_person00.trc
DataRate	CameraRate	NumFrames	NumMarkers	Units	OrigDataRate	OrigDataStartFrame	OrigNumFrames
29.85576923076923	29.85576923076923	12	22	m	29.85576923076923	104	208
Frame#	Time	Hip			RHip			RKnee			RAnkle			RBigToe			RSmallToe			RHeel			LHip			LKnee			LAnkle			LBigToe			LSmallToe			LHeel			Neck			Head			Nose			RShoulder			RElbow			RWrist			LShoulder			LElbow			LWrist		
		X1	Y1	Z1	X2	Y2	Z2	X3	Y3	Z3	X4	Y4	Z4	X5	Y5	Z5	X6	Y6	Z6	X7	Y7	Z7	X8	Y8	Z8	X9	Y9	Z9	X10	Y10	Z10	X11	Y11	Z11	X12	Y12	Z12	X13	Y13	Z13	X14	Y14	Z14	X15	Y15	Z15	X16	Y16	Z16	X17	Y17	Z17	X18	Y18	Z18	X19	Y19	Z19	X20	Y20	Z20	X21	Y21	Z21	X22	Y22	Z22
104	3.4834138486312396	1.2342961263433707	-0.5851675809825274	0.0	1.2382436697801062	-0.5897672106123233	0.0	1.295571877047554	-0.46489725184520464	0.0	1.3899725191618033	-0.5471615675506551	0.0	1.4435725524326302	-0.5102331070050663	0.0	1.4455476703700072	-0.525251681946034	0.0	1.3967543215344078	-0.5730986625160548	0.0	1.235808565808759	-0.5782359977123013	0.0	1.2906705681380715	-0.4640160313865733	0.0	1.3855336275707766	-0.557370303438476	0.0	1.442007835993616	-0.5443192210599899	0.0	1.4332900529230037	-0.5345653145385093	0.0	1.3833032409062376	-0.5836576234752825	0.0	1.0748934212797414	-0.5100878130111588	0.0	1.0405747585441583	-0.4539677613741732	0.0	1.0839313832078392	-0.46125037817420417	0.0	1.0856717999943628	-0.5240845589326423	0.0	1.1189023147480608	-0.44944819851873735	0.0	1.0516133208110037	-0.3984421071588079	0.0	1.099088818935863	-0.5167976475022446	0.0	1.1422026303381876	-0.44163882325288123	0.0	1.137428831778423	-0.3903756410562095	0.0
105	3.5169082125603865	1.2374775648421439	-0.5839600342960817	0.0	1.2427545798282142	-0.5899304476734469	0.0	1.3085289722046631	-0.47004655920823796	0.0	1.4001865676158287	-0.5565326525671365	0.0	1.4577999766235359	-0.5209137558915591	0.0	1.4583432219105867	-0.5389124630414678	0.0	1.4050993673845809	-0.5830980250815241	0.0	1.239427371531968	-0.5778236090754933	0.0	1.3041278940775913	-0.46839121720280613	0.0	1.3956256953516806	-0.5646050992513912	0.0	1.4551230602096745	-0.5522199535832057	0.0	1.4465385495221494	-0.542088268428861	0.0	1.3925247637631162	-0.5896150583004675	0.0	1.0822627959173388	-0.5043994910410585	0.0	1.0510349589311723	-0.44417978671624214	0.0	1.0932610910391674	-0.45640926235377693	0.0	1.091073466617105	-0.5201928637250824	0.0	1.1250317640017196	-0.44648881322302597	0.0	1.0622562426109892	-0.38911583455218923	0.0	1.106416788492003	-0.5137193889542853	0.0	1.1524232835901114	-0.44027728314946696	0.0	1.1546387629745485	-0.38466946397386664	0.0
106	3.550402576489533	1.2401312558029227	-0.5824401617995203	0.0	1.246681731079343	-0.5895054769500073	0.0	1.3209499185979605	-0.4755951804214664	0.0	1.4093743741076425	-0.5668081553931132	0.0	1.4712850306099874	-0.5327112493569047	0.0	1.4703658054745798	-0.5544913259926997	0.0	1.412944955172814	-0.5941411073977085	0.0	1.24288074288082	-0.5767605681045008	0.0	1.317145313235387	-0.47300264046839463	0.0	1.4053412260807128	-0.5708055002897251	0.0	1.4671067285991635	-0.5576371583671151	0.0	1.4594083631007468	-0.5478739650052905	0.0	1.4019490371220262	-0.5949551952916154	0.0	1.0892328554703288	-0.4994639534920699	0.0	1.0615951008492346	-0.4371281578731083	0.0	1.1013226522756923	-0.4525131697323231	0.0	1.096243584369169	-0.5167050702353375	0.0	1.132209921269176	-0.4442393025082899	0.0	1.073494371824243	-0.38099055754307243	0.0	1.1129074195672921	-0.51050260876599	0.0	1.1613434699896308	-0.4388259337019371	0.0	1.1703054475803605	-0.38007612055965495	0.0
107	3.5838969404186796	1.2423457462734981	-0.581117401893832	0.0	1.2498150070496519	-0.5889988121865836	0.0	1.332777619484858	-0.48174961600804816	0.0	1.41792612444909	-0.5776993013806236	0.0	1.48367685584049	-0.5456713119273945	0.0	1.4813722548698707	-0.5706410626973706	0.0	1.4208143095752006	-0.6056350422138905	0.0	1.2460389374014298	-0.5754769985959166	0.0	1.3293339162707012	-0.4780385664849889	0.0	1.414624107608434	-0.576857884388736	0.0	1.4778602591741576	-0.562383645853572	0.0	1.4713365306650097	-0.5534186633980499	0.0	1.4115146189920704	-0.6005515403363896	0.0	1.0958094024051277	-0.4952062300322763	0.0	1.071723593765006	-0.4322750588911722	0.0	1.1084782858630677	-0.44915371687552813	0.0	1.1013521904701553	-0.5134655361744843	0.0	1.1404070421109016	-0.4421591345146492	0.0	1.0848663137170715	-0.37403688227024373	0.0	1.1184599739081875	-0.5069948153758354	0.0	1.1689897606781388	-0.43719007623758366	0.0	1.1843362865491611	-0.376400217138038	0.0
108	3.617391304347826	1.244440619277065	-0.5802042204117157	0.0	1.2521247883916231	-0.5887761147725336	0.0	1.3440985151676637	-0.4886985834880793	0.0	1.4262700709444778	-0.5890694744963381	0.0	1.4948494736026758	-0.5598754988290385	0.0	1.4912717749111886	-0.586175726961349	0.0	1.4290417872114565	-0.6171675457292816	0.0	1.2490886649263446	-0.574192592619102	0.0	1.3406575313885145	-0.48367386652027466	0.0	1.4235913369781799	-0.5836272215214032	0.0	1.4876680398727071	-0.5681708209813691	0.0	1.482121871497673	-0.5603122808518709	0.0	1.4212546045405632	-0.6071612087887723	0.0	1.102300281194611	-0.4914382801772353	0.0	1.080864895632872	-0.4289191666874035	0.0	1.1152927731084483	-0.4458974292924264	0.0	1.1065817498430328	-0.5103041291436156	0.0	1.1489057732316525	-0.4395924314077803	0.0	1.0960560068338985	-0.36798968969261686	0.0	1.1237371263514966	-0.5029906799560895	0.0	1.1759110414891152	-0.43534626866623083	0.0	1.1972093498552205	-0.37331522976667414	0.0
109	3.6508856682769726	1.2468924159396917	-0.5796738625538296	0.0	1.253824042567272	-0.5890111348570127	0.0	1.3550085695572727	-0.4964210824869868	0.0	1.4345502014059788	-0.6008832168368031	0.0	1.5047444534207948	-0.5750911396863986	0.0	1.5000489906675614	-0.6006496146261249	0.0	1.437525340254808	-0.6286413710849265	0.0	1.2524487765097003	-0.5730586473729784	0.0	1.35132130452543	-0.48995567110062455	0.0	1.4323088173213154	-0.5916415461982015	0.0	1.4968791161412796	-0.5760123180398138	0.0	1.4918751126567928	-0.5695284208933359	0.0	1.4309995539355718	-0.6153280666444744	0.0	1.1091146245671275	-0.488017202965844	0.0	1.08867147823955	-0.42640875326008165	0.0	1.122169299201469	-0.4424524908438945	0.0	1.1119860803850803	-0.5071940464424654	0.0	1.1566777152396912	-0.43611431904002307	0.0	1.1070206691690792	-0.3624377964063276	0.0	1.1297757699980526	-0.4984893973642687	0.0	1.1829784315158256	-0.4332887851702971	0.0	1.2096380744473287	-0.370467939375992	0.0
110	3.684380032206119	1.250100437049322	-0.5794372309897773	0.0	1.2553196569851057	-0.5896715702772102	0.0	1.365441368456483	-0.5045463082539987	0.0	1.4425876512227849	-0.6128532505458322	0.0	1.5132307441313066	-0.5905331019368355	0.0	1.5076539804984963	-0.6141032881321203	0.0	1.4458077229985407	-0.6399381260416634	0.0	1.2564972280854898	-0.572347333562615	0.0	1.3614892446601987	-0.49683835329851855	0.0	1.4405692533431238	-0.601145822840967	0.0	1.50556785013986	-0.5863551810217121	0.0	1.5006916146504123	-0.5814427827602783	0.0	1.440196691891729	-0.6254965948362056	0.0	1.1164646799939208	-0.4848022410293108	0.0	1.0952579251450654	-0.42408770637751264	0.0	1.1292832175839882	-0.4387170094871241	0.0	1.1175582228617442	-0.5041080650117127	0.0	1.1628275187373647	-0.43153079974426356	0.0	1.1178405461610488	-0.35701529610548166	0.0	1.1373296538147324	-0.49382377948928546	0.0	1.190887079301371	-0.4311709998095182	0.0	1.2220605088894567	-0.36775024947247964	0.0
111	3.7178743961352656	1.2541515291602185	-0.5795005847587553	0.0	1.2570977866394986	-0.5905662798300857	0.0	1.3752600367401222	-0.5124908625460164	0.0	1.4500754865693715	-0.6244132468084104	0.0	1.5202456955087487	-0.6053257134300417	0.0	1.5141000794446355	-0.6266984694378679	0.0	1.453378113215161	-0.6508084863151006	0.0	1.2613205598449622	-0.5724497678850979	0.0	1.3711898352673242	-0.5043620666939241	0.0	1.4479853573386638	-0.6122142434692567	0.0	1.5134915687006716	-0.5993007330644924	0.0	1.508507095462336	-0.5960627075610988	0.0	1.4481474900137932	-0.6379015541054304	0.0	1.124231217527515	-0.48165978349793165	0.0	1.1012275309009156	-0.4214407952172324	0.0	1.1366860745918785	-0.43485339746850665	0.0	1.1233264617456813	-0.5008386207373428	0.0	1.1672190445561372	-0.4259562197697271	0.0	1.1285265678104273	-0.35157935247922184	0.0	1.1463642451772555	-0.4894628048403788	0.0	1.199737302976109	-0.42933247645927414	0.0	1.2344912437788085	-0.36533021491625667	0.0
112	3.751368760064412	1.2587905748618928	-0.5799641204925066	0.0	1.2595219919323002	-0.5914893004525615	0.0	1.3844393782442816	-0.5198648062498519	0.0	1.4567518131671504	-0.6351692029520055	0.0	1.5259269395225783	-0.6192317141466787	0.0	1.5195474606802657	-0.6387958956752504	0.0	1.459838611810822	-0.6611112617625224	0.0	1.2666426652092126	-0.573658923139648	0.0	1.3803981440182	-0.5126830896911362	0.0	1.4542934345555758	-0.6247042141305209	0.0	1.520349738300142	-0.6146069580102164	0.0	1.515232936895249	-0.6130141259548604	0.0	1.4544230837820025	-0.6521580563672863	0.0	1.1321850741266692	-0.47853365469800685	0.0	1.1074814556413046	-0.41819571760521124	0.0	1.144376114161754	-0.4311773271684142	0.0	1.129371112983749	-0.49712525736574675	0.0	1.1707253632562376	-0.41996159923487036	0.0	1.1389737155785982	-0.346240903202654	0.0	1.1562133554544305	-0.4856592411889021	0.0	1.2091943143765203	-0.4279808381934038	0.0	1.246695879340972	-0.36338704810084527	0.0
113	3.7848631239935586	1.2636422971192376	-0.5809398932124721	0.0	1.2626835307949589	-0.5923841614979312	0.0	1.3931151993541355	-0.5267572210923419	0.0	1.4625005526830133	-0.6452749988491399	0.0	1.5305765238992173	-0.6327849840090602	0.0	1.5242436053429986	-0.6510333250104275	0.0	1.4649703881848144	-0.671041861940376	0.0	1.2720099646012466	-0.5760107500998226	0.0	1.389138604326905	-0.5219200423416529	0.0	1.4595436253055531	-0.6382384388860679	0.0	1.5260796583673255	-0.6316543252313968	0.0	1.5209273051290297	-0.631526087296195	0.0	1.4590654151655884	-0.6672852480471972	0.0	1.1402894599436972	-0.4754835158343345	0.0	1.1148929688175973	-0.41422667982027744	0.0	1.1524249559220332	-0.42789431701515346	0.0	1.1358080407246924	-0.49292147889288235	0.0	1.174581658116185	-0.414299869012809	0.0	1.149155255876108	-0.3411793365015601	0.0	1.1662180557320367	-0.4823567705601786	0.0	1.2189840444307416	-0.4269766836755612	0.0	1.2584881749141614	-0.361921334090319	0.0
114	3.818357487922705	1.2684134919229473	-0.5825245282734823	0.0	1.266426864817433	-0.5934107300148439	0.0	1.4014434393143702	-0.5335924163994271	0.0	1.4673489935955835	-0.6552309686414695	0.0	1.534501995675228	-0.6466883737784871	0.0	1.5283991537233168	-0.6639493472371341	0.0	1.4687720860668743	-0.6809993801246628	0.0	1.27704462326982	-0.579324984787544	0.0	1.3974473120222608	-0.5318978990874119	0.0	1.4639949838031825	-0.6521691295149656	0.0	1.5308740976216575	-0.6493185596681449	0.0	1.525767029399733	-0.6503920059998409	0.0	1.4624219162996237	-0.6821699509318601	0.0	1.1486792168645197	-0.47263791598405736	0.0	1.124026991731264	-0.4094604405015697	0.0	1.1611223355145797	-0.42502244436126874	0.0	1.1427298758009279	-0.4884709281638096	0.0	1.1796170532598653	-0.409467668592207	0.0	1.1592144333272865	-0.3365088036076038	0.0	1.1760591936525107	-0.47941344714982465	0.0	1.2289982899687748	-0.42599552130469337	0.0	1.2697900760122538	-0.36077531672474045	0.0
115	3.8518518518518516	1.2729498058478632	-0.5847641012153831	0.0	1.2705144761133855	-0.5948932047916058	0.0	1.4094218296031271	-0.5408695349892177	0.0	1.4713150694704387	-0.6655278962190384	0.0	1.537797278412532	-0.6614081984319746	0.0	1.532026921269183	-0.6777856772929706	0.0	1.471326254185626	-0.6913063678263299	0.0	1.281621282976319	-0.5832522066224823	0.0	1.4052893422637014	-0.5420060634507167	0.0	1.4678998879222547	-0.6655378455504875	0.0	1.53496764815892	-0.6660071412383266	0.0	1.5298966513571854	-0.6680029545299346	0.0	1.4648751975327627	-0.6957867271815872	0.0	1.1574387767779062	-0.4700931485746174	0.0	1.1350967323588201	-0.40390932735614526	0.0	1.1709249064702616	-0.4225744444122155	0.0	1.150135366646776	-0.4841842261706167	0.0	1.186065074135726	-0.40558314914521504	0.0	1.1692823549681588	-0.3323097270874835	0.0	1.1856734792636214	-0.4767565326779381	0.0	1.2390931200247466	-0.42476777590505155	0.0	1.2804814317858315	-0.3597222712302952	0.0
